<svg width="53" height="44" viewBox="0 0 53 44" fill="none" xmlns="http://www.w3.org/2000/svg">
<path d="M39.0918 30.9768C41.7245 30.9768 43.5654 29.2151 43.5654 26.6826C43.5654 24.1501 41.7245 22.4434 39.0918 22.4434H34.0391C33.8342 22.4434 33.668 22.6026 33.668 22.7989V28.9214H32.0596C31.8547 28.9214 31.6885 29.0806 31.6885 29.277V30.6213C31.6885 30.8176 31.8547 30.9768 32.0596 30.9768H33.668V31.925H32.0596C31.8547 31.925 31.6885 32.0842 31.6885 32.2805V33.4657C31.6885 33.6621 31.8547 33.8213 32.0596 33.8213H33.668V35.3621C33.668 35.5584 33.8342 35.7176 34.0391 35.7176H35.8504C36.0553 35.7176 36.2215 35.5584 36.2215 35.3621V33.8213H41.2148C41.4198 33.8213 41.5859 33.6621 41.5859 33.4657V32.2805C41.5859 32.0842 41.4198 31.925 41.2148 31.925H36.2215V30.9768H39.0918ZM36.2215 24.4804H38.6563C40.1013 24.4804 40.9723 25.3429 40.9723 26.6826C40.9723 28.0406 40.1013 28.9214 38.6167 28.9214H36.2215V24.4804Z" fill="#009B95"/>
<path d="M37.389 14.155H31.7802V8.45885C31.7802 8.16493 31.6643 7.88306 31.4581 7.67523C31.2518 7.46741 30.9721 7.35065 30.6804 7.35065H29.3167V1.43289C29.3167 1.13898 29.2008 0.857102 28.9946 0.649275C28.7883 0.441448 28.5086 0.324692 28.2169 0.324692L1.82243 0.324692C1.53075 0.324692 1.25102 0.441448 1.04477 0.649275C0.838525 0.857102 0.722656 1.13898 0.722656 1.43289L0.722656 8.23721C0.722656 8.38274 0.751103 8.52684 0.806371 8.66129C0.86164 8.79575 0.942649 8.91791 1.04477 9.02082C1.14689 9.12372 1.26813 9.20535 1.40156 9.26105C1.53499 9.31674 1.678 9.3454 1.82243 9.3454H3.27412V15.2632C3.27412 15.5571 3.38999 15.839 3.59624 16.0468C3.80249 16.2546 4.08222 16.3714 4.3739 16.3714H5.47367V20.9815H2.17435C1.88268 20.9815 1.60295 21.0982 1.3967 21.306C1.19045 21.5139 1.07458 21.7957 1.07458 22.0896V42.4361C1.07458 42.73 1.19045 43.0119 1.3967 43.2197C1.60295 43.4276 1.88268 43.5443 2.17435 43.5443H28.5689C28.8605 43.5443 29.1403 43.4276 29.3465 43.2197C29.5528 43.0119 29.6686 42.73 29.6686 42.4361V41.3058C31.5898 42.5589 33.7757 43.341 36.0509 43.5894C38.3262 43.8378 40.6276 43.5456 42.7705 42.7362C44.9135 41.9268 46.8385 40.6227 48.3911 38.9284C49.9437 37.2342 51.0808 35.197 51.7112 32.9801C52.3415 30.7632 52.4477 28.4283 52.0211 26.1626C51.5945 23.8969 50.647 21.7635 49.2546 19.9333C47.8622 18.1031 46.0636 16.6271 44.0031 15.6237C41.9425 14.6202 39.6773 14.1172 37.389 14.155ZM2.9222 2.54108H27.1172V7.12901H2.9222V2.54108ZM5.47367 9.56704H29.6686V14.155H5.47367V9.56704ZM7.67321 16.3714H29.6686C27.8099 17.5361 26.2321 19.1033 25.0496 20.9593H7.67321V16.3714ZM23.07 34.5901H3.27412V30.0022H22.7181C22.8292 31.5801 23.1931 33.1294 23.7959 34.5901H23.07ZM3.27412 23.1757H23.8838C23.2736 24.635 22.9022 26.1845 22.7841 27.7636H3.27412V23.1757ZM27.4691 41.3944H3.27412V36.8065H25.0276C25.6897 37.8554 26.4804 38.8161 27.3811 39.6656L27.4691 41.3944ZM37.477 41.3944C35.2983 41.3966 33.1575 40.8206 31.27 39.7243C29.3824 38.6281 27.8146 37.0503 26.7243 35.1496C25.6341 33.2489 25.0598 31.0924 25.0592 28.8971C25.0587 26.7017 25.6319 24.545 26.7212 22.6437C26.7648 22.5813 26.8016 22.5145 26.8312 22.4443C27.9493 20.5737 29.5342 19.0309 31.428 17.9696C33.3219 16.9082 35.4586 16.3652 37.6255 16.3947C39.7923 16.4242 41.9137 17.0251 43.7784 18.1377C45.6431 19.2503 47.186 20.8356 48.2536 22.7359C49.3211 24.6362 49.876 26.7852 49.8631 28.9688C49.8501 31.1524 49.2697 33.2945 48.1797 35.1818C47.0896 37.0691 45.528 38.6357 43.6502 39.7257C41.7724 40.8157 39.6441 41.391 37.477 41.3944Z" fill="#009B95"/>
</svg>
