<svg width="56" height="50" viewBox="0 0 56 50" fill="none" xmlns="http://www.w3.org/2000/svg">
<path d="M54.8025 22.0092L43.0253 13.4954C42.7015 13.2611 42.2735 13.2283 41.9175 13.4101C41.5616 13.5921 41.3376 13.9581 41.3376 14.3578V20.7891L31.2482 13.4954C30.9244 13.2611 30.4965 13.2283 30.1406 13.4101C29.7845 13.5921 29.5607 13.9581 29.5607 14.3578V20.7891L19.4712 13.4954C19.1473 13.2611 18.7194 13.2283 18.3633 13.4101C18.0075 13.5921 17.7834 13.9581 17.7834 14.3578V21.8073H15.5842L14.1849 1.51448C14.1462 0.956415 13.6824 0.523392 13.1231 0.523392H7.5452C6.98586 0.523392 6.52219 0.956308 6.48345 1.51448L5.08402 21.8074H1.82055C1.23279 21.8074 0.756348 22.2838 0.756348 22.8716V48.4124C0.756348 49.0001 1.23279 49.4766 1.82055 49.4766H54.1792C54.7669 49.4766 55.2434 49.0001 55.2434 48.4124V22.8716C55.2434 22.5299 55.0794 22.2091 54.8025 22.0092ZM7.36439 19.6789H9.6354C10.2229 19.6789 10.6996 19.2023 10.6996 18.6147C10.6996 18.0269 10.2229 17.5505 9.6354 17.5505H7.51115L8.53853 2.6519H12.1298L13.4507 21.8073H7.21764L7.36439 19.6789ZM17.7833 26.0643H11.8569C11.2694 26.0643 10.7927 26.5409 10.7927 27.1285C10.7927 27.7162 11.2694 28.1927 11.8569 28.1927H17.7833V30.321H11.8569C11.2694 30.321 10.7927 30.7976 10.7927 31.3852C10.7927 31.973 11.2694 32.4494 11.8569 32.4494H17.7833V34.5778H14.9393C14.3517 34.5778 13.8751 35.0544 13.8751 35.642C13.8751 36.2298 14.3517 36.7062 14.9393 36.7062H17.7833V38.8345H11.8569C11.2694 38.8345 10.7927 39.311 10.7927 39.8987C10.7927 40.4863 11.2694 40.9629 11.8569 40.9629H17.7833V43.0911H11.8569C11.2694 43.0911 10.7927 43.5676 10.7927 44.1553C10.7927 44.743 11.2694 45.2195 11.8569 45.2195H17.7833V47.3481H2.88475V23.9357H6.07341C6.07469 23.9357 6.07607 23.9359 6.07735 23.9359H14.5907C14.5916 23.936 14.5924 23.936 14.5929 23.9359C14.5944 23.9359 14.5955 23.9357 14.597 23.9357H17.7833V26.0643ZM53.115 47.3481H19.9117V22.8715V16.4402L30.0013 23.7339C30.3252 23.9682 30.7531 24.0012 31.1092 23.8191C31.465 23.6372 31.689 23.2712 31.689 22.8715V16.4402L41.7784 23.7338C42.1022 23.9682 42.5302 24.0009 42.886 23.8191C43.2421 23.6372 43.4659 23.2712 43.4659 22.8715V16.4402L53.115 23.4153V47.3481Z" fill="#009B95"/>
<path d="M11.8567 36.706H11.8818C12.4696 36.706 12.946 36.2295 12.946 35.6418C12.946 35.0541 12.4696 34.5776 11.8818 34.5776H11.8567C11.2691 34.5776 10.7925 35.0541 10.7925 35.6418C10.7925 36.2294 11.269 36.706 11.8567 36.706Z" fill="#009B95"/>
<path d="M32.2563 30.3208H27.9993C27.4115 30.3208 26.9351 30.7973 26.9351 31.385V35.6415C26.9351 36.2292 27.4115 36.7057 27.9993 36.7057H32.2563C32.8439 36.7057 33.3205 36.2292 33.3205 35.6415V31.385C33.3205 30.7974 32.8439 30.3208 32.2563 30.3208ZM31.1921 34.5773H29.0635V32.4492H31.1921V34.5773Z" fill="#009B95"/>
<path d="M39.7056 31.385V35.6415C39.7056 36.2292 40.1822 36.7057 40.7698 36.7057H45.0268C45.6145 36.7057 46.091 36.2292 46.091 35.6415V31.385C46.091 30.7973 45.6145 30.3208 45.0268 30.3208H40.7698C40.1822 30.3208 39.7056 30.7974 39.7056 31.385ZM41.834 32.4492H43.9626V34.5773H41.834V32.4492Z" fill="#009B95"/>
<path d="M34.9902 43.0913H34.9651C34.3775 43.0913 33.9009 43.5678 33.9009 44.1555C33.9009 44.7432 34.3775 45.2197 34.9651 45.2197H34.9902C35.578 45.2197 36.0544 44.7432 36.0544 44.1555C36.0544 43.5678 35.578 43.0913 34.9902 43.0913Z" fill="#009B95"/>
<path d="M31.9075 43.0913H27.9993C27.4115 43.0913 26.9351 43.5678 26.9351 44.1555C26.9351 44.7432 27.4115 45.2197 27.9993 45.2197H31.9075C32.4951 45.2197 32.9717 44.7432 32.9717 44.1555C32.9717 43.5678 32.4951 43.0913 31.9075 43.0913Z" fill="#009B95"/>
</svg>
