<svg width="50" height="52" viewBox="0 0 50 52" fill="none" xmlns="http://www.w3.org/2000/svg">
<path d="M18.8576 8.83274L19.8238 2H30.1762L31.1424 8.83274C33.2767 9.61797 35.2518 10.775 36.9743 12.2491L43.3238 9.721L48.5 18.6036L43.1167 22.4982C43.5522 24.7554 43.5522 27.0738 43.1167 29.331L48.5 33.4989L43.3238 42.3815L36.9743 39.8534C36.1256 40.5867 35.2001 41.228 34.2137 41.7665C33.2417 42.3375 32.2124 42.8069 31.1424 43.1673L30.1762 50H19.8238L18.8576 43.1673C16.7233 42.382 14.7482 41.225 13.0257 39.7509L6.67621 42.279L1.5 33.3964L6.88326 29.331C6.44777 27.0738 6.44777 24.7554 6.88326 22.4982L1.5 18.3986L6.67621 9.51601L13.0257 12.0441C13.8744 11.3108 14.7999 10.6695 15.7863 10.131C16.7626 9.59541 17.7917 9.16039 18.8576 8.83274V8.83274Z" stroke="#009B95" stroke-width="3" stroke-linecap="round" stroke-linejoin="round"/>
</svg>
