<svg width="35" height="52" viewBox="0 0 35 52" fill="none" xmlns="http://www.w3.org/2000/svg">
<path d="M17.5002 33.2729C16.9503 33.2729 16.5039 33.7193 16.5039 34.2692C16.5039 34.8192 16.9503 35.2656 17.5002 35.2656C18.0502 35.2656 18.4966 34.8192 18.4966 34.2692C18.4966 33.7193 18.0502 33.2729 17.5002 33.2729Z" fill="#009B95"/>
<path d="M30.4522 43.5353H30.3511L29.5534 36.0914C29.2236 33.1206 27.8153 30.3869 25.5884 28.3944C24.6075 27.5157 23.5009 26.8113 22.314 26.2979C26.1588 24.6303 29.0036 21.0229 29.5374 16.6359C29.538 16.6315 29.5386 16.6268 29.5392 16.6222C29.5398 16.6173 29.5406 16.6125 29.5411 16.6076C29.5458 16.5719 29.5503 16.5353 29.5545 16.4955L30.3576 8.4647H30.4522C31.5163 8.4647 32.5169 8.05003 33.2699 7.29711C34.0228 6.54428 34.4375 5.54358 34.4375 4.4794C34.4375 2.28191 32.6497 0.49411 30.4522 0.49411H4.54779C3.48372 0.49411 2.48311 0.90878 1.73009 1.6617C0.97717 2.41452 0.5625 3.41523 0.5625 4.4794C0.5625 6.6769 2.3503 8.4647 4.54779 8.4647H4.64244L5.44598 16.5008C5.44967 16.5358 5.45425 16.5705 5.45873 16.605C5.45933 16.6117 5.46043 16.6184 5.46122 16.6251C5.46172 16.6287 5.46212 16.6324 5.46252 16.6359C5.99615 21.0215 8.83916 24.6281 12.6822 26.2963C8.79502 27.9772 5.94085 31.6383 5.44618 36.0951L4.64892 43.5353H4.54779C3.48372 43.5353 2.48311 43.95 1.73009 44.7029C0.97717 45.4557 0.5625 46.4564 0.5625 47.5206C0.5625 49.7181 2.3503 51.5059 4.54779 51.5059H30.4522C31.5163 51.5059 32.5169 51.0912 33.2699 50.3383C34.0228 49.5855 34.4375 48.5848 34.4375 47.5206C34.4375 45.3231 32.6497 43.5353 30.4522 43.5353ZM4.54779 6.47205C3.44905 6.47205 2.55515 5.57815 2.55515 4.4794C2.55515 3.94757 2.76258 3.44731 3.13909 3.0707C3.5157 2.69419 4.01596 2.48676 4.54779 2.48676H30.4522C31.551 2.48676 32.4449 3.38066 32.4449 4.4794C32.4449 5.01124 32.2374 5.5115 31.8609 5.88811C31.4843 6.26462 30.984 6.47205 30.4522 6.47205H29.4559H5.54412H4.54779ZM6.64506 8.4647H28.3549L27.6502 15.5127H7.34975L6.64506 8.4647ZM7.64108 17.5053H27.3589C26.292 22.021 22.2376 25.3026 17.5 25.3026C12.7624 25.3026 8.70804 22.021 7.64108 17.5053ZM7.42697 36.3112C7.9605 31.5051 11.7814 27.8044 16.5037 27.3439V30.2842C16.5037 30.8344 16.9497 31.2805 17.5 31.2805C18.0503 31.2805 18.4963 30.8344 18.4963 30.2842V27.3453C20.631 27.5554 22.6479 28.4356 24.2593 29.8789C26.1206 31.5442 27.2974 33.8287 27.5725 36.3074L28.2641 42.7606L18.4665 37.4995C18.3936 37.4603 18.316 37.4304 18.2356 37.4104C17.7501 37.2896 17.2372 37.2937 16.7522 37.4218C16.677 37.4417 16.6045 37.4703 16.5361 37.5069L6.73572 42.7621L7.42697 36.3112ZM25.4945 43.5353H9.51068L17.3565 39.3282C17.4549 39.3123 17.5552 39.3112 17.6533 39.3246L25.4945 43.5353ZM31.8609 48.9293C31.4843 49.3058 30.984 49.5132 30.4522 49.5132H4.54779C3.44905 49.5132 2.55515 48.6193 2.55515 47.5206C2.55515 46.9887 2.76258 46.4885 3.13909 46.1119C3.5157 45.7354 4.01596 45.5279 4.54779 45.5279H5.53674C5.53884 45.5279 5.54093 45.5279 5.54312 45.5279H5.54412H29.4518C29.4529 45.5279 29.454 45.5281 29.455 45.5281C29.456 45.5281 29.4569 45.5279 29.4579 45.5279H30.4522C31.551 45.5279 32.4449 46.4218 32.4449 47.5206C32.4449 48.0524 32.2374 48.5527 31.8609 48.9293Z" fill="#009B95"/>
</svg>
