<svg width="33" height="33" viewBox="0 0 33 33" fill="none" xmlns="http://www.w3.org/2000/svg">
<path d="M0.000976562 11.2591C0.000976562 10.9755 0.23195 10.7456 0.514478 10.7456C0.797006 10.7456 1.02798 10.9766 1.02798 11.2591V29.833C1.02798 30.4206 1.26969 30.9556 1.65646 31.3434C2.04424 31.7313 2.57922 31.973 3.16683 31.973H29.6999C30.2875 31.973 30.8224 31.7313 31.2103 31.3434C31.5982 30.9556 31.8387 30.4206 31.8387 29.833V11.2591C31.8387 10.9755 32.0697 10.7456 32.3523 10.7456C32.6348 10.7456 32.8658 10.9766 32.8658 11.2591V29.833C32.8658 30.7043 32.5091 31.497 31.9365 32.0696C31.3628 32.6433 30.5711 32.9998 29.7 32.9998H3.16683C2.29562 32.9998 1.50281 32.6432 0.930241 32.0696C0.357613 31.497 0.000976562 30.7042 0.000976562 29.833V11.2591Z" fill="#E3010F"/>
<path d="M9.95002 13.0993H5.00737V18.7047H9.95002V13.0993ZM4.49387 12.0723H10.4506H10.4635C10.7471 12.0723 10.977 12.3032 10.977 12.5858V19.2053V19.2182C10.977 19.5018 10.746 19.7317 10.4635 19.7317H4.50686H4.49397C4.21037 19.7317 3.98047 19.5007 3.98047 19.2182V12.5986V12.5857C3.9794 12.3032 4.21037 12.0723 4.49387 12.0723Z" fill="#E3010F"/>
<path d="M27.8604 13.0993H22.9178V18.7047H27.8604V13.0993ZM22.4032 12.0723H28.36H28.3739C28.6575 12.0723 28.8874 12.3032 28.8874 12.5858V19.2053V19.2182C28.8874 19.5018 28.6565 19.7317 28.3739 19.7317H22.4171H22.4042C22.1207 19.7317 21.8896 19.5007 21.8896 19.2182V12.5986V12.5857C21.8896 12.3032 22.1206 12.0723 22.4032 12.0723Z" fill="#E3010F"/>
<path d="M18.9042 13.0993H13.9616V18.7047H18.9042V13.0993ZM13.4481 12.0723H19.4049H19.4189C19.7025 12.0723 19.9324 12.3032 19.9324 12.5858V19.2053V19.2182C19.9324 19.5018 19.7013 19.7317 19.4189 19.7317H13.462H13.4481C13.1645 19.7317 12.9346 19.5007 12.9346 19.2182V12.5986V12.5857C12.9346 12.3032 13.1655 12.0723 13.4481 12.0723Z" fill="#E3010F"/>
<path d="M9.95002 22.3875H5.00737V27.993H9.95002V22.3875ZM4.49387 21.3594H10.4506H10.4635C10.7471 21.3594 10.977 21.5904 10.977 21.8729V28.4925V28.5065C10.977 28.7901 10.746 29.02 10.4635 29.02H4.50686H4.49397C4.21037 29.02 3.98047 28.789 3.98047 28.5065V21.8869V21.8741C3.9794 21.5904 4.21037 21.3594 4.49387 21.3594Z" fill="#E3010F"/>
<path d="M27.8604 22.3875H22.9178V27.993H27.8604V22.3875ZM22.4032 21.3594H28.36H28.3739C28.6575 21.3594 28.8874 21.5904 28.8874 21.8729V28.4925V28.5065C28.8874 28.7901 28.6565 29.02 28.3739 29.02H22.4171H22.4042C22.1207 29.02 21.8896 28.789 21.8896 28.5065V21.8869V21.8741C21.8896 21.5904 22.1206 21.3594 22.4032 21.3594Z" fill="#E3010F"/>
<path d="M18.9042 22.3875H13.9616V27.993H18.9042V22.3875ZM13.4481 21.3594H19.4049H19.4189C19.7025 21.3594 19.9324 21.5904 19.9324 21.8729V28.4925V28.5065C19.9324 28.7901 19.7013 29.02 19.4189 29.02H13.462H13.4481C13.1645 29.02 12.9346 28.789 12.9346 28.5065V21.8869V21.8741C12.9346 21.5904 13.1655 21.3594 13.4481 21.3594Z" fill="#E3010F"/>
<path d="M24.6501 6.05343C24.6501 6.33703 24.4191 6.56693 24.1366 6.56693C23.853 6.56693 23.6231 6.33596 23.6231 6.05343V0.513501C23.622 0.230974 23.853 0 24.1355 0C24.4191 0 24.649 0.230974 24.649 0.513501V6.05343H24.6501Z" fill="#E3010F"/>
<path d="M9.2438 6.05343C9.2438 6.33703 9.01283 6.56693 8.7303 6.56693C8.4467 6.56693 8.2168 6.33596 8.2168 6.05343V0.513501C8.21578 0.230974 8.44675 0 8.72923 0C9.01283 0 9.2438 0.230974 9.2438 0.513501V6.05343Z" fill="#E3010F"/>
<path d="M8.72941 2.57084C9.01302 2.57084 9.24292 2.80074 9.24292 3.08435C9.24292 3.36795 9.01194 3.59785 8.72941 3.59785H3.16699C2.58367 3.59785 2.04869 3.84064 1.65876 4.22955L1.63405 4.25425C1.26023 4.63887 1.02711 5.1652 1.02711 5.7367V8.09257H31.8379V5.7367C31.8379 5.15124 31.5951 4.61733 31.2073 4.22955L31.1826 4.20377C30.7969 3.82995 30.2706 3.5979 29.698 3.5979H26.1861C25.9026 3.5979 25.6726 3.36693 25.6726 3.0844C25.6726 2.8008 25.9036 2.5709 26.1861 2.5709H29.698C30.5445 2.5709 31.3255 2.91572 31.898 3.47111L31.9335 3.50333C32.5061 4.07698 32.8649 4.86764 32.8649 5.7367V8.59205V8.60602C32.8649 8.88962 32.6339 9.11952 32.3514 9.11952H0.527464H0.513501C0.230974 9.12059 0 8.88962 0 8.60602V5.7367C0 4.88912 0.344822 4.11027 0.900211 3.5377L0.932433 3.50226C1.50715 2.92754 2.29894 2.56982 3.16693 2.56982H8.72936L8.72941 2.57084ZM24.1353 2.57084H10.7823C10.4987 2.57084 10.2688 2.80074 10.2688 3.08435C10.2688 3.36795 10.4998 3.59785 10.7823 3.59785H24.1353C24.4189 3.59785 24.6488 3.36687 24.6488 3.08435C24.6499 2.80074 24.4189 2.57084 24.1353 2.57084Z" fill="#009B95"/>
</svg>
