<svg width="44" height="27" viewBox="0 0 44 27" fill="none" xmlns="http://www.w3.org/2000/svg">
<path d="M42.8754 4.04759H34.75L24.7326 0.779369C24.1311 0.582539 23.4932 0.522289 22.8655 0.603003C22.2377 0.683717 21.6358 0.903365 21.1037 1.24596L15.0677 5.12364C15.0026 5.16541 14.9464 5.2196 14.9022 5.28311C14.858 5.34662 14.8268 5.41821 14.8103 5.4938C14.7937 5.56938 14.7923 5.64748 14.806 5.72363C14.8196 5.79978 14.8482 5.87249 14.8899 5.93761C14.9317 6.00273 14.9859 6.05898 15.0494 6.10316C15.1129 6.14734 15.1845 6.17858 15.2601 6.19509C15.3357 6.2116 15.4138 6.21306 15.4899 6.19939C15.5661 6.18572 15.6388 6.15718 15.7039 6.11541L21.7398 2.24287C22.1253 1.99533 22.5612 1.83697 23.0156 1.77936C23.4701 1.72175 23.9317 1.76634 24.3667 1.90989L34.4766 5.19866C34.5353 5.21796 34.5968 5.22767 34.6586 5.22744H42.2875V15.1256H37.9042C37.7962 15.1258 37.6903 15.1555 37.598 15.2117C37.5058 15.2679 37.4307 15.3483 37.3811 15.4442C36.7208 16.561 35.7124 17.4304 34.5106 17.919V15.2705C35.4551 14.8677 36.4633 14.1667 37.1066 12.9448C37.1429 12.8762 37.1653 12.8012 37.1725 12.724C37.1797 12.6467 37.1717 12.5689 37.1488 12.4948C37.126 12.4207 37.0888 12.3518 37.0393 12.2921C36.9898 12.2323 36.9291 12.183 36.8605 12.1467C36.7919 12.1105 36.7169 12.0881 36.6397 12.0809C36.5625 12.0736 36.4846 12.0817 36.4105 12.1045C36.3364 12.1274 36.2675 12.1646 36.2078 12.2141C36.1481 12.2635 36.0987 12.3243 36.0625 12.3929C34.9422 14.5347 32.157 14.6303 32.1416 14.6303C28.4109 14.6303 27.3338 12.026 27.2907 11.918C27.2479 11.8069 27.1725 11.7112 27.0744 11.6437C26.9762 11.5762 26.86 11.54 26.7408 11.5398H21.2044C20.9944 11.5452 20.7855 11.5085 20.59 11.4318C20.3945 11.3552 20.2163 11.2402 20.0659 11.0936C19.9155 10.947 19.796 10.7718 19.7143 10.5783C19.6327 10.3848 19.5907 10.1769 19.5907 9.96687C19.5907 9.75686 19.6327 9.54897 19.7143 9.35546C19.796 9.16194 19.9155 8.98673 20.0659 8.84013C20.2163 8.69354 20.3945 8.57853 20.59 8.5019C20.7855 8.42526 20.9944 8.38855 21.2044 8.39391H27.8128C27.8922 8.39723 27.9716 8.38445 28.046 8.35632C28.1204 8.3282 28.1883 8.28532 28.2457 8.23026C28.3031 8.1752 28.3488 8.1091 28.38 8.03593C28.4112 7.96277 28.4273 7.88405 28.4273 7.8045C28.4273 7.72496 28.4112 7.64624 28.38 7.57307C28.3488 7.49991 28.3031 7.43381 28.2457 7.37875C28.1883 7.32369 28.1204 7.28081 28.046 7.25268C27.9716 7.22456 27.8922 7.21177 27.8128 7.21509H21.2044C20.8385 7.20802 20.475 7.27397 20.1349 7.40909C19.7949 7.5442 19.4852 7.74577 19.2239 8.00199C18.9627 8.25822 18.7552 8.56397 18.6135 8.90134C18.4719 9.23872 18.3989 9.60096 18.3989 9.96687C18.3989 10.3328 18.4719 10.695 18.6135 11.0324C18.7552 11.3698 18.9627 11.6755 19.2239 11.9318C19.4852 12.188 19.7949 12.3895 20.1349 12.5247C20.475 12.6598 20.8385 12.7257 21.2044 12.7187H26.3719C26.8642 13.622 28.4407 15.8091 32.1539 15.8091C32.5508 15.7915 32.9451 15.7368 33.3317 15.6457V24.3815C33.3315 24.612 33.2398 24.833 33.0768 24.996C32.9138 25.159 32.6928 25.2507 32.4623 25.2509H2.04829C1.81804 25.2507 1.59724 25.1593 1.43414 24.9968C1.27104 24.8342 1.17888 24.6138 1.17779 24.3835V9.26338C1.17806 9.03287 1.26976 8.81187 1.43276 8.64888C1.59575 8.48588 1.81675 8.39418 2.04726 8.39391H17.0759C17.1554 8.39723 17.2347 8.38445 17.3091 8.35632C17.3835 8.3282 17.4515 8.28532 17.5089 8.23026C17.5663 8.1752 17.612 8.1091 17.6432 8.03593C17.6744 7.96277 17.6905 7.88405 17.6905 7.8045C17.6905 7.72496 17.6744 7.64624 17.6432 7.57307C17.612 7.49991 17.5663 7.43381 17.5089 7.37875C17.4515 7.32369 17.3835 7.28081 17.3091 7.25268C17.2347 7.22456 17.1554 7.21177 17.0759 7.21509H2.04829C1.50563 7.21699 0.985744 7.4334 0.602025 7.81712C0.218306 8.20084 0.001896 8.72073 0 9.26338V24.3835C0.001896 24.9262 0.218306 25.4461 0.602025 25.8298C0.985744 26.2135 1.50563 26.4299 2.04829 26.4318H32.4623C33.0049 26.4299 33.5248 26.2135 33.9085 25.8298C34.2923 25.4461 34.5087 24.9262 34.5106 24.3835V19.1677C36.6236 18.4946 37.8065 16.9704 38.2382 16.3034H42.8754C43.0316 16.3034 43.1815 16.2414 43.2921 16.131C43.4027 16.0206 43.465 15.8708 43.4653 15.7145V4.63751C43.4653 4.48106 43.4031 4.33101 43.2925 4.22037C43.1819 4.10974 43.0318 4.04759 42.8754 4.04759Z" fill="#009B95"/>
<path d="M3.99698 19.9292V13.7165C4.61704 13.5973 5.18712 13.295 5.6336 12.8485C6.08007 12.402 6.38242 11.832 6.50158 11.2119H16.5663C16.7183 11.2056 16.8621 11.1407 16.9674 11.0308C17.0728 10.921 17.1316 10.7747 17.1316 10.6225C17.1316 10.4703 17.0728 10.324 16.9674 10.2141C16.8621 10.1043 16.7183 10.0394 16.5663 10.0331H5.96819C5.81173 10.0331 5.66168 10.0952 5.55105 10.2059C5.44041 10.3165 5.37826 10.4665 5.37826 10.623C5.37867 10.8821 5.32802 11.1387 5.22922 11.3782C5.13041 11.6177 4.98539 11.8354 4.80242 12.0189C4.61946 12.2023 4.40215 12.3479 4.1629 12.4473C3.92366 12.5467 3.66716 12.5981 3.40808 12.5983C3.25322 12.5994 3.10499 12.6613 2.99539 12.7707C2.88579 12.8801 2.82361 13.0283 2.82227 13.1831V20.4636C2.82227 20.5411 2.83753 20.6177 2.86719 20.6892C2.89685 20.7608 2.94032 20.8257 2.99511 20.8804C3.04991 20.9351 3.11495 20.9785 3.18651 21.008C3.25808 21.0375 3.33477 21.0527 3.41219 21.0525C3.93464 21.0534 4.43545 21.2613 4.80478 21.6309C5.17411 22.0004 5.38183 22.5013 5.38237 23.0237C5.38237 23.1012 5.39764 23.1778 5.4273 23.2493C5.45696 23.3209 5.50043 23.3858 5.55522 23.4405C5.61001 23.4952 5.67505 23.5386 5.74662 23.5681C5.81819 23.5976 5.89488 23.6128 5.9723 23.6126H28.5425C28.62 23.6128 28.6967 23.5976 28.7682 23.5681C28.8398 23.5386 28.9048 23.4952 28.9596 23.4405C29.0144 23.3858 29.0579 23.3209 29.0875 23.2493C29.1172 23.1778 29.1325 23.1012 29.1325 23.0237C29.133 22.5013 29.3407 22.0004 29.7101 21.6309C30.0794 21.2613 30.5802 21.0534 31.1027 21.0525C31.1801 21.0527 31.2568 21.0375 31.3283 21.008C31.3999 20.9785 31.4649 20.9351 31.5197 20.8804C31.5745 20.8257 31.618 20.7608 31.6477 20.6892C31.6773 20.6177 31.6926 20.5411 31.6926 20.4636V17.7997C31.6959 17.7203 31.6831 17.6409 31.655 17.5665C31.6269 17.4921 31.584 17.4242 31.5289 17.3668C31.4739 17.3094 31.4078 17.2637 31.3346 17.2325C31.2614 17.2013 31.1827 17.1852 31.1032 17.1852C31.0236 17.1852 30.9449 17.2013 30.8717 17.2325C30.7986 17.2637 30.7325 17.3094 30.6774 17.3668C30.6224 17.4242 30.5795 17.4921 30.5514 17.5665C30.5232 17.6409 30.5104 17.7203 30.5138 17.7997V19.9292C29.8938 20.0486 29.3239 20.3511 28.8774 20.7975C28.431 21.2439 28.1286 21.8139 28.0092 22.4338H6.50158C6.38215 21.8139 6.07972 21.2439 5.63329 20.7975C5.18686 20.3511 4.61692 20.0486 3.99698 19.9292Z" fill="#009B95"/>
<path d="M17.6693 17.8906C19.0776 17.8906 20.0624 16.9086 20.0624 15.497C20.0624 14.0854 19.0776 13.1342 17.6693 13.1342H14.9664C14.8568 13.1342 14.7679 13.2229 14.7679 13.3323V16.7449H13.9075C13.7979 16.7449 13.709 16.8337 13.709 16.9431V17.6924C13.709 17.8019 13.7979 17.8906 13.9075 17.8906H14.7679V18.4191H13.9075C13.7979 18.4191 13.709 18.5078 13.709 18.6173V19.2779C13.709 19.3873 13.7979 19.4761 13.9075 19.4761H14.7679V20.3349C14.7679 20.4443 14.8568 20.533 14.9664 20.533H15.9353C16.045 20.533 16.1339 20.4443 16.1339 20.3349V19.4761H18.8049C18.9146 19.4761 19.0035 19.3873 19.0035 19.2779V18.6173C19.0035 18.5078 18.9146 18.4191 18.8049 18.4191H16.1339V17.8906H17.6693ZM16.1339 14.2696H17.4363C18.2093 14.2696 18.6752 14.7503 18.6752 15.497C18.6752 16.254 18.2093 16.7449 17.4151 16.7449H16.1339V14.2696Z" fill="#009B95"/>
<path d="M10.3484 16.4071C10.2395 16.5164 10.1776 16.6639 10.1758 16.8182C10.1757 16.8573 10.1798 16.8962 10.1881 16.9343C10.1953 16.9718 10.2067 17.0083 10.222 17.0433C10.2361 17.0795 10.2544 17.114 10.2765 17.1461C10.2973 17.178 10.3214 17.2076 10.3484 17.2345C10.3758 17.2619 10.4058 17.2867 10.4379 17.3084C10.4703 17.3295 10.5047 17.3474 10.5406 17.3619C10.5765 17.3768 10.6137 17.3885 10.6516 17.3968C10.6896 17.4039 10.7281 17.4073 10.7667 17.4071C10.9228 17.4066 11.0723 17.3445 11.183 17.2345C11.2103 17.2074 11.2351 17.1778 11.257 17.1461C11.2775 17.1131 11.2957 17.0788 11.3114 17.0433C11.325 17.0078 11.336 16.9714 11.3443 16.9343C11.3523 16.8962 11.356 16.8572 11.3556 16.8182C11.3548 16.702 11.3195 16.5887 11.2544 16.4925C11.1892 16.3963 11.0971 16.3215 10.9895 16.2775C10.8819 16.2336 10.7638 16.2224 10.6499 16.2455C10.536 16.2685 10.4315 16.3248 10.3495 16.4071H10.3484Z" fill="#009B95"/>
<path d="M23.2544 17.1512C23.2765 17.1827 23.3013 17.2122 23.3284 17.2395C23.3898 17.3014 23.4641 17.3488 23.546 17.3784C23.628 17.4079 23.7155 17.4189 23.8022 17.4104C23.8889 17.4019 23.9726 17.3743 24.0472 17.3294C24.1219 17.2846 24.1857 17.2237 24.2339 17.1512C24.256 17.1191 24.2743 17.0846 24.2884 17.0484C24.3037 17.0134 24.315 16.9769 24.3223 16.9394C24.3304 16.902 24.3346 16.8637 24.3346 16.8254C24.3379 16.7459 24.3251 16.6666 24.297 16.5922C24.2689 16.5178 24.226 16.4498 24.1709 16.3924C24.1159 16.335 24.0498 16.2893 23.9766 16.2581C23.9035 16.2269 23.8247 16.2108 23.7452 16.2108C23.6657 16.2108 23.5869 16.2269 23.5138 16.2581C23.4406 16.2893 23.3745 16.335 23.3194 16.3924C23.2644 16.4498 23.2215 16.5178 23.1934 16.5922C23.1653 16.6666 23.1525 16.7459 23.1558 16.8254C23.156 16.8637 23.1598 16.9018 23.1671 16.9394C23.1753 16.9767 23.1866 17.0131 23.201 17.0484C23.216 17.084 23.2339 17.1184 23.2544 17.1512Z" fill="#009B95"/>
</svg>
