<svg width="35" height="35" viewBox="0 0 20 14" fill="none" xmlns="http://www.w3.org/2000/svg">
<mask id="path-1-inside-1_1651_6751" fill="white">
<path d="M0 0H20V2H0V0Z"/>
<path d="M0 6H20V8H0V6Z"/>
<path d="M0 12H20V14H0V12Z"/>
</mask>
<path d="M0 0H20V2H0V0Z" fill="black"/>
<path d="M0 6H20V8H0V6Z" fill="black"/>
<path d="M0 12H20V14H0V12Z" fill="black"/>
<path d="M0 0V-2C-1.10457 -2 -2 -1.10457 -2 0L0 0ZM20 0H22C22 -1.10457 21.1046 -2 20 -2V0ZM20 2V4C21.1046 4 22 3.10457 22 2L20 2ZM0 2H-2C-2 3.10457 -1.10457 4 0 4L0 2ZM0 6V4C-1.10457 4 -2 4.89543 -2 6H0ZM20 6H22C22 4.89543 21.1046 4 20 4V6ZM20 8V10C21.1046 10 22 9.10457 22 8H20ZM0 8H-2C-2 9.10457 -1.10457 10 0 10L0 8ZM0 12V10C-1.10457 10 -2 10.8954 -2 12H0ZM20 12H22C22 10.8954 21.1046 10 20 10V12ZM20 14V16C21.1046 16 22 15.1046 22 14H20ZM0 14H-2C-2 15.1046 -1.10457 16 0 16L0 14ZM22 2V0H18V2H22ZM-2 0V2H2V0H-2ZM22 8V6H18V8H22ZM-2 6V8H2V6H-2ZM22 14V12H18V14H22ZM-2 12V14H2V12H-2ZM20 -2H0V2H20V-2ZM0 4H20V0H0V4ZM20 4H0V8H20V4ZM0 10H20V6H0V10ZM20 10H0V14H20V10ZM0 16H20V12H0V16Z" fill="#009B95" mask="url(#path-1-inside-1_1651_6751)"/>
</svg>
