<svg width="43" height="43" viewBox="0 0 43 43" fill="none" xmlns="http://www.w3.org/2000/svg">
<path d="M35.7856 29.0278C35.6111 28.9687 35.4267 28.9448 35.2429 28.9574C35.0591 28.97 34.8796 29.0189 34.7148 29.1013C34.55 29.1837 34.4032 29.2979 34.2829 29.4374C34.1625 29.5769 34.071 29.7388 34.0136 29.9139C33.9562 30.0889 33.9341 30.2736 33.9485 30.4573C33.9629 30.641 34.0136 30.8199 34.0976 30.9839C34.1817 31.1479 34.2973 31.2935 34.438 31.4125C34.5787 31.5315 34.7415 31.6214 34.9171 31.6771C38.1061 32.7226 39.5335 33.971 39.5335 34.7429C39.5335 36.6856 32.3052 39.6221 21.4108 39.6221C10.5164 39.6221 3.28811 36.6856 3.28811 34.7429C3.28811 33.971 4.71552 32.7226 7.90454 31.6771C8.08016 31.6214 8.243 31.5315 8.38366 31.4125C8.52431 31.2935 8.63999 31.1479 8.72401 30.9839C8.80802 30.8199 8.8587 30.641 8.87313 30.4573C8.88755 30.2736 8.86543 30.0889 8.80804 29.9139C8.75065 29.7388 8.65913 29.5769 8.53878 29.4374C8.41842 29.2979 8.27161 29.1837 8.10684 29.1013C7.94206 29.0189 7.76259 28.97 7.5788 28.9574C7.395 28.9448 7.21053 28.9687 7.03605 29.0278C1.63403 30.799 0.5 33.1133 0.5 34.7429C0.5 39.7759 11.0194 42.4102 21.4108 42.4102C31.8022 42.4102 42.3216 39.7759 42.3216 34.7429C42.3216 33.1133 41.1876 30.799 35.7856 29.0278Z" fill="#009B95"/>
<path d="M20.5407 36.5294C20.7879 36.7268 21.0949 36.8343 21.4113 36.8343C21.7276 36.8343 22.0346 36.7268 22.2818 36.5294C22.7917 36.1209 34.7541 26.4075 34.7541 13.9318C34.7541 10.393 33.3484 6.99919 30.8461 4.49691C28.3438 1.99463 24.95 0.588867 21.4112 0.588867C17.8725 0.588867 14.4787 1.99463 11.9764 4.49691C9.47412 6.99919 8.06836 10.393 8.06836 13.9318C8.06839 26.4075 20.0308 36.1209 20.5407 36.5294ZM16.6316 13.9318C16.6317 12.9864 16.912 12.0624 17.4373 11.2764C17.9625 10.4904 18.709 9.87783 19.5823 9.51611C20.4557 9.15438 21.4167 9.05976 22.3439 9.24421C23.271 9.42866 24.1226 9.88389 24.7911 10.5523C25.4595 11.2208 25.9147 12.0724 26.0991 12.9996C26.2835 13.9268 26.1888 14.8878 25.8271 15.7611C25.4653 16.6345 24.8527 17.3809 24.0667 17.9061C23.2807 18.4313 22.3566 18.7116 21.4113 18.7116C20.1436 18.7116 18.9279 18.208 18.0315 17.3116C17.1352 16.4152 16.6316 15.1995 16.6316 13.9318V13.9318Z" fill="#009B95"/>
</svg>
