<svg width="42" height="42" viewBox="0 0 42 42" fill="none" xmlns="http://www.w3.org/2000/svg">
<path d="M21 3.0625C30.8896 3.0625 38.9375 11.1104 38.9375 21C38.9375 30.8896 30.8896 38.9375 21 38.9375C11.1104 38.9375 3.0625 30.8896 3.0625 21C3.0625 11.1104 11.1104 3.0625 21 3.0625ZM21 0.5C9.67896 0.5 0.5 9.67896 0.5 21C0.5 32.321 9.67896 41.5 21 41.5C32.321 41.5 41.5 32.321 41.5 21C41.5 9.67896 32.321 0.5 21 0.5ZM32.4287 27.8542L32.3135 27.5039C32.0433 26.6981 31.1524 25.8573 30.3316 25.632L27.3012 24.8037C26.4804 24.581 25.3092 24.8813 24.7063 25.4844L23.6101 26.5805C19.6263 25.5019 16.5007 22.3764 15.4246 18.3925L16.5208 17.2964C17.1213 16.6958 17.4216 15.5247 17.1989 14.7014L16.373 11.6709C16.1503 10.8501 15.3044 9.95923 14.4987 9.68896L14.1533 9.57381C13.345 9.30355 12.1914 9.57629 11.5908 10.1794L9.94922 11.821C9.65645 12.1113 9.46875 12.9446 9.46875 12.9472C9.41366 18.1573 11.4557 23.1747 15.1393 26.8608C18.8129 30.5343 23.8128 32.5739 29.0053 32.5288C29.0329 32.5288 29.8912 32.3461 30.184 32.0533L31.8256 30.4117C32.4262 29.8136 32.6964 28.66 32.4287 27.8542Z" fill="#009B95"/>
</svg>
