<svg width="30" height="33" viewBox="0 0 30 33" fill="none" xmlns="http://www.w3.org/2000/svg">
<path d="M9.55805 15.9822L8.84665 21.1117C8.82048 21.3009 8.84616 21.4935 8.92095 21.6692C8.99574 21.8448 9.11684 21.9969 9.27131 22.1091C9.42578 22.2213 9.60782 22.2894 9.79799 22.3062C9.98817 22.323 10.1793 22.2878 10.3511 22.2045L14.9946 19.9431L19.6533 22.205C19.8251 22.2882 20.0163 22.3232 20.2065 22.3062C20.3966 22.2893 20.5786 22.221 20.733 22.1087C20.8874 21.9964 21.0084 21.8443 21.0831 21.6686C21.1578 21.493 21.1834 21.3003 21.1572 21.1112L20.4416 15.9964L24.0316 12.2651C24.164 12.1275 24.2565 11.9566 24.2993 11.7705C24.3421 11.5845 24.3336 11.3903 24.2746 11.2087C24.2156 11.0271 24.1084 10.8649 23.9645 10.7395C23.8206 10.6141 23.6453 10.5301 23.4573 10.4965L18.3712 9.59678L15.9315 5.02911C15.8416 4.86066 15.7077 4.71981 15.5439 4.62159C15.3802 4.52338 15.1929 4.4715 15.0019 4.4715C14.811 4.4715 14.6237 4.52338 14.4599 4.62159C14.2962 4.71981 14.1622 4.86066 14.0724 5.02911L11.6447 9.58788L6.54656 10.4965C6.35861 10.5301 6.18331 10.6141 6.03936 10.7395C5.89542 10.8649 5.78824 11.0271 5.72927 11.2087C5.67031 11.3903 5.66176 11.5845 5.70455 11.7705C5.74734 11.9566 5.83986 12.1275 5.97224 12.2651L9.55805 15.9822ZM11.834 10.6425C11.9909 10.6146 12.1394 10.5513 12.2682 10.4575C12.397 10.3637 12.5027 10.2418 12.5774 10.101L14.9862 5.53284L15.4591 5.28108L14.9868 5.53321L17.4265 10.1009C17.5013 10.2418 17.6072 10.3638 17.7362 10.4576C17.8652 10.5514 18.014 10.6146 18.1711 10.6423L23.2598 11.5221L19.6702 15.2534C19.5591 15.3681 19.4756 15.5066 19.4262 15.6585C19.3768 15.8103 19.3628 15.9715 19.3852 16.1296L20.1207 21.2408L15.4625 18.9794C15.3192 18.9092 15.1617 18.8727 15.0021 18.8727C14.8426 18.8727 14.6851 18.9092 14.5418 18.9794L9.90772 21.2586L10.6197 16.128C10.6417 15.9702 10.6275 15.8094 10.5781 15.6578C10.5287 15.5063 10.4454 15.368 10.3345 15.2534L6.73495 11.5509L11.834 10.6425Z" fill="#009B95"/>
<path d="M28.0178 16.4973C28.2654 15.4804 28.3913 14.4377 28.3927 13.3911C28.3927 9.83952 26.9819 6.43339 24.4705 3.92204C21.9592 1.41068 18.553 -0.000183105 15.0015 -0.000183105C11.4499 -0.000183105 8.04373 1.41068 5.53237 3.92204C3.02102 6.43339 1.61015 9.83952 1.61015 13.3911C1.61154 14.4377 1.73753 15.4803 1.98549 16.497C0.94943 17.413 0.26934 18.6647 0.0647311 20.0324C-0.139877 21.4 0.144089 22.796 0.866726 23.9751C1.58936 25.1541 2.70443 26.0407 4.01597 26.4791C5.32751 26.9175 6.7516 26.8796 8.03798 26.3721V31.6033C8.03799 31.6811 8.05494 31.7579 8.08764 31.8285C8.12035 31.899 8.16803 31.9616 8.22737 32.0119C8.28671 32.0622 8.35628 32.0989 8.43126 32.1196C8.50623 32.1403 8.58481 32.1444 8.66153 32.1316L15.0015 31.075L21.3414 32.1316C21.3704 32.1364 21.3998 32.1388 21.4293 32.1389C21.5713 32.1389 21.7076 32.0825 21.808 31.982C21.9085 31.8816 21.9649 31.7453 21.9649 31.6033V26.3721C23.2511 26.8785 24.6746 26.9156 25.9854 26.4769C27.2962 26.0382 28.4107 25.1519 29.133 23.9734C29.8554 22.7948 30.1396 21.3995 29.9356 20.0324C29.7317 18.6652 29.0527 17.4136 28.0178 16.4973ZM15.0015 1.07112C18.2678 1.07475 21.3993 2.37391 23.709 4.68357C26.0187 6.99323 27.3178 10.1248 27.3214 13.3911C27.3224 14.4577 27.1826 15.5196 26.9056 16.5496C26.1696 19.3095 24.5007 21.7295 22.1825 23.3983C21.8534 23.6352 21.5126 23.8554 21.1614 24.0581L21.1606 24.0587L21.1567 24.0612C20.8957 24.2156 20.6201 24.3542 20.3854 24.4693C18.7084 25.2863 16.8674 25.711 15.002 25.7111C13.1365 25.7112 11.2955 25.2867 9.61847 24.4698C9.38305 24.3542 9.10741 24.2156 8.84178 24.0581C8.48964 23.8549 8.14795 23.6341 7.81799 23.3966C5.50013 21.727 3.8319 19.3064 3.0968 16.5461C2.81998 15.5173 2.68032 14.4565 2.68146 13.3911C2.68509 10.1248 3.98425 6.99323 6.29391 4.68357C8.60357 2.37391 11.7351 1.07475 15.0015 1.07112ZM5.89537 25.7111C4.96331 25.7112 4.0512 25.4411 3.2695 24.9335C2.4878 24.4259 1.87004 23.7025 1.49103 22.851C1.11202 21.9994 0.988011 21.0563 1.13403 20.1357C1.28004 19.2152 1.68982 18.3567 2.31373 17.6643C2.32482 17.6973 2.33998 17.7286 2.35123 17.7617C2.46473 18.0903 2.58815 18.4152 2.72688 18.733C2.73867 18.7601 2.752 18.7865 2.764 18.8133C2.9047 19.1299 3.05749 19.4404 3.22236 19.7449C3.23693 19.7717 3.25016 19.7994 3.26521 19.8263C3.43325 20.1316 3.61537 20.4292 3.80654 20.7205C3.83606 20.7656 3.86493 20.811 3.89503 20.8557C4.08558 21.1388 4.28672 21.4143 4.49844 21.6821C4.53267 21.7255 4.56738 21.7682 4.6022 21.8111C4.82037 22.0808 5.04749 22.3431 5.28591 22.5954C5.31156 22.6225 5.33835 22.6485 5.36422 22.6757C5.86851 23.2005 6.41476 23.6832 6.99753 24.1192C7.03208 24.1451 7.06577 24.1719 7.10064 24.1974C7.37796 24.4006 7.66365 24.5925 7.95768 24.7732C7.98516 24.7903 8.01044 24.8105 8.03803 24.8273V25.2092C7.37196 25.5391 6.6387 25.7109 5.89537 25.7111ZM9.10928 25.529V25.4129L9.14678 25.4317C10.8067 26.2445 12.6188 26.6996 14.4658 26.7675V30.0783L9.10928 30.9708V25.529ZM20.8936 30.9708L15.5371 30.0783V26.7675C17.3843 26.6996 19.1965 26.2443 20.8565 25.4312C20.8685 25.4255 20.8811 25.4192 20.8936 25.413V30.9708ZM24.1075 25.7111C23.3642 25.7108 22.631 25.539 21.9649 25.2089V24.8273C21.9913 24.8112 22.0153 24.792 22.0416 24.7758C22.3352 24.5941 22.6212 24.4019 22.8995 24.1993C22.937 24.1719 22.9731 24.1431 23.0102 24.1153C23.2988 23.8992 23.5804 23.6745 23.8499 23.4363L23.8544 23.4322C24.1251 23.1927 24.3836 22.9405 24.6338 22.6806C24.662 22.6512 24.6911 22.6229 24.7191 22.5933C24.9564 22.3422 25.1823 22.0812 25.3994 21.8129C25.4348 21.7692 25.4701 21.7259 25.5049 21.6818C25.7169 21.4132 25.9184 21.1372 26.1096 20.8536C26.1382 20.8111 26.1657 20.7679 26.1938 20.725C26.3871 20.4304 26.571 20.1305 26.7407 19.8215C26.7522 19.8007 26.7624 19.7793 26.7737 19.7584C26.9444 19.4437 27.1025 19.1223 27.248 18.7942C27.2559 18.7762 27.2648 18.7587 27.2728 18.7407C27.4147 18.416 27.541 18.0843 27.6565 17.7484C27.6663 17.7199 27.6795 17.6928 27.6891 17.6642C28.313 18.3567 28.7228 19.2151 28.8688 20.1357C29.0148 21.0562 28.8908 21.9994 28.5118 22.8509C28.1328 23.7024 27.5151 24.4258 26.7334 24.9335C25.9517 25.4411 25.0396 25.7112 24.1075 25.7111Z" fill="#009B95"/>
</svg>
