<svg width="35" height="35" viewBox="0 0 22 22" fill="none" xmlns="http://www.w3.org/2000/svg">
<path d="M8 6.58579L11 9.58579L14 6.58579L15.4142 8L12.4142 11L15.4142 14L14 15.4142L11 12.4142L8 15.4142L6.58579 14L9.58579 11L6.58579 8L8 6.58579Z" fill="black"/>
<path fill-rule="evenodd" clip-rule="evenodd" d="M0 11C0 4.92487 4.92487 0 11 0C17.0751 0 22 4.92487 22 11C22 17.0751 17.0751 22 11 22C4.92487 22 0 17.0751 0 11ZM11 2C6.02944 2 2 6.02944 2 11C2 15.9706 6.02944 20 11 20C15.9706 20 20 15.9706 20 11C20 6.02944 15.9706 2 11 2Z" fill="black"/>
</svg>
