<svg width="35" height="36" viewBox="0 0 35 36" fill="none" xmlns="http://www.w3.org/2000/svg">
<path d="M21.2656 24H12.9766V21.9688L15.7656 19.1484C16.5625 18.3151 17.0833 17.7474 17.3281 17.4453C17.5729 17.138 17.7422 16.875 17.8359 16.6562C17.9349 16.4375 17.9844 16.2083 17.9844 15.9688C17.9844 15.6719 17.888 15.4375 17.6953 15.2656C17.5026 15.0938 17.2318 15.0078 16.8828 15.0078C16.5234 15.0078 16.1589 15.112 15.7891 15.3203C15.4245 15.5234 15.0104 15.8255 14.5469 16.2266L12.8516 14.2422C13.4401 13.7161 13.9349 13.3411 14.3359 13.1172C14.737 12.888 15.1719 12.7135 15.6406 12.5938C16.1146 12.474 16.6458 12.4141 17.2344 12.4141C17.974 12.4141 18.6328 12.5443 19.2109 12.8047C19.7943 13.0651 20.2448 13.4375 20.5625 13.9219C20.8854 14.401 21.0469 14.9401 21.0469 15.5391C21.0469 15.987 20.9896 16.401 20.875 16.7812C20.7656 17.1615 20.5938 17.5365 20.3594 17.9062C20.125 18.2708 19.8125 18.6562 19.4219 19.0625C19.0365 19.4688 18.2109 20.2396 16.9453 21.375V21.4531H21.2656V24Z" fill="#009B95"/>
<rect x="0.5" y="1" width="34" height="34" rx="17" stroke="#009B95"/>
</svg>
