<svg width="35" height="36" viewBox="0 0 35 36" fill="none" xmlns="http://www.w3.org/2000/svg">
<path d="M20.8828 15.0547C20.8828 15.763 20.6667 16.3724 20.2344 16.8828C19.8021 17.388 19.1771 17.7552 18.3594 17.9844V18.0312C20.2656 18.2708 21.2188 19.1719 21.2188 20.7344C21.2188 21.7969 20.7969 22.6328 19.9531 23.2422C19.1146 23.8516 17.9479 24.1562 16.4531 24.1562C15.8385 24.1562 15.2682 24.112 14.7422 24.0234C14.2214 23.9349 13.6562 23.7734 13.0469 23.5391V20.9766C13.5469 21.2318 14.0547 21.4219 14.5703 21.5469C15.0911 21.6667 15.5703 21.7266 16.0078 21.7266C16.6849 21.7266 17.1771 21.6328 17.4844 21.4453C17.7969 21.2526 17.9531 20.9531 17.9531 20.5469C17.9531 20.2344 17.8724 19.9948 17.7109 19.8281C17.5495 19.6562 17.2891 19.5286 16.9297 19.4453C16.5703 19.3568 16.1016 19.3125 15.5234 19.3125H14.8203V16.9922H15.5391C17.1068 16.9922 17.8906 16.5911 17.8906 15.7891C17.8906 15.487 17.7734 15.263 17.5391 15.1172C17.3099 14.9714 17 14.8984 16.6094 14.8984C15.8802 14.8984 15.125 15.1432 14.3438 15.6328L13.0625 13.5703C13.6667 13.1536 14.2839 12.8568 14.9141 12.6797C15.5495 12.5026 16.276 12.4141 17.0938 12.4141C18.276 12.4141 19.2031 12.6484 19.875 13.1172C20.5469 13.5859 20.8828 14.2318 20.8828 15.0547Z" fill="#009B95"/>
<rect x="0.5" y="1" width="34" height="34" rx="17" stroke="#009B95"/>
</svg>
