<svg width="35" height="36" viewBox="0 0 35 36" fill="none" xmlns="http://www.w3.org/2000/svg">
<path d="M17.6875 16.5156C18.3438 16.5156 18.9349 16.6693 19.4609 16.9766C19.9922 17.2786 20.4036 17.7083 20.6953 18.2656C20.9922 18.8229 21.1406 19.4661 21.1406 20.1953C21.1406 21.4714 20.7552 22.4505 19.9844 23.1328C19.2188 23.8151 18.0573 24.1562 16.5 24.1562C15.1667 24.1562 14.0781 23.9505 13.2344 23.5391V21.0078C13.6875 21.2161 14.1979 21.388 14.7656 21.5234C15.3385 21.6589 15.8307 21.7266 16.2422 21.7266C16.8151 21.7266 17.2552 21.6068 17.5625 21.3672C17.8698 21.1224 18.0234 20.763 18.0234 20.2891C18.0234 19.8516 17.8672 19.5104 17.5547 19.2656C17.2422 19.0208 16.7682 18.8984 16.1328 18.8984C15.6484 18.8984 15.125 18.9896 14.5625 19.1719L13.4297 18.6094L13.8594 12.5781H20.375V15.1484H16.4844L16.3438 16.6562C16.75 16.5781 17.0391 16.5365 17.2109 16.5312C17.3828 16.5208 17.5417 16.5156 17.6875 16.5156Z" fill="#009B95"/>
<rect x="0.5" y="1" width="34" height="34" rx="17" stroke="#009B95"/>
</svg>
